<svg width="26" height="28" viewBox="0 0 26 28" fill="none" xmlns="http://www.w3.org/2000/svg">
<path d="M12.9444 6.0735C12.9957 4.67879 13.3876 3.45371 14.1107 2.42963C14.8376 1.40035 16.0392 0.669188 17.6841 0.254881C17.695 0.305531 17.7064 0.356213 17.7182 0.4067V0.6717C17.7182 1.2726 17.5724 1.96164 17.2847 2.71954C16.9832 3.45338 16.5121 4.14405 15.8862 4.76739C15.3009 5.31663 14.7594 5.68025 14.2809 5.84462C14.1229 5.89181 13.9062 5.93825 13.6446 5.98006C13.4119 6.01631 13.1785 6.0475 12.9444 6.0735Z" fill="#212121"/>
<path d="M13.2189 8.14312C11.3609 8.14312 10.071 6.49994 8.23831 6.49994C6.40569 6.49994 2.63013 8.18444 2.63013 13.9999C2.63013 19.8154 5.98288 23.5624 6.35788 23.9999C6.73281 24.4375 7.60006 25.5621 8.94363 25.5621C10.2873 25.5621 11.7582 24.4939 13.2189 24.4939C14.6795 24.4939 16.518 25.5621 17.7183 25.5621C18.9185 25.5621 19.4122 25.0728 20.2291 24.2289C21.0459 23.3849 22.6039 20.8095 23.1481 19.2638C22.2518 18.7302 19.8763 17.2819 19.8763 13.9999C19.8763 11.812 20.6759 9.99431 22.2751 8.547C21.2259 7.18231 20.0092 6.49994 18.6248 6.49994C16.5481 6.49994 15.0768 8.14312 13.2189 8.14312Z" fill="#212121" stroke="#212121" stroke-width="4" stroke-linejoin="round"/>
</svg>
